<?xml version="1.0" encoding="UTF-8"?>
<svg width="390px" height="400px" viewBox="0 0 390 400" version="1.1" xmlns="http://www.w3.org/2000/svg" xmlns:xlink="http://www.w3.org/1999/xlink">
    <!-- Generator: Sketch 52.5 (67469) - http://www.bohemiancoding.com/sketch -->
    <title>Combined Shape</title>
    <desc>Created with Sketch.</desc>
    <g id="Logo-use" stroke="none" stroke-width="1" fill="none" fill-rule="evenodd">
        <g id="Artboard" transform="translate(-770.000000, -1000.000000)" fill="#181818">
            <path d="M833.672916,1151.83581 C832.106412,1155.74389 829.651919,1158.52758 826.307413,1160.18639 C822.366361,1161.87221 818.110085,1161.81667 813.53808,1160.02326 L782.044067,1147.67153 C777.472567,1145.87812 774.336018,1143.03387 772.632394,1139.1348 C771.34772,1135.66107 771.489393,1131.96916 773.055897,1128.06108 C774.667433,1124.04241 777.122937,1121.25972 780.421905,1119.7105 C784.250125,1117.98264 788.506907,1118.03668 793.190733,1119.87363 L798.440241,1121.93275 L794.747117,1131.14251 L789.497609,1129.08389 C787.410455,1128.26524 785.842434,1128.10211 784.794556,1128.596 C783.826117,1129.05636 783.018072,1130.09568 782.368904,1131.71346 C781.741493,1133.27669 781.621576,1134.5552 782.008142,1135.54498 C782.463521,1136.69238 783.705694,1137.66465 785.737696,1138.46077 L817.231709,1150.813 C819.263206,1151.61013 820.842865,1151.74524 821.968157,1151.21782 C822.935585,1150.75846 823.73351,1149.74616 824.360921,1148.18343 C825.009583,1146.56566 825.141137,1145.26013 824.755077,1144.26885 C824.335116,1143.20001 823.080294,1142.25526 820.992128,1141.43612 L813.372625,1138.44726 L817.065749,1129.23751 L824.684746,1132.22586 C829.370596,1134.06331 832.50664,1136.90955 834.096924,1140.76209 C835.427137,1144.12674 835.284958,1147.81714 833.672916,1151.83581 Z M815.32185,1076.81186 C814.220339,1078.09387 813.691593,1079.26529 813.736119,1080.32613 C813.794812,1081.5571 814.65649,1082.87213 816.32166,1084.27174 L842.137602,1105.97083 C843.803278,1107.37043 845.254925,1107.99993 846.492038,1107.85781 C847.558131,1107.73021 848.641933,1107.02516 849.743444,1105.74365 C850.882903,1104.4171 851.411649,1103.24568 851.328669,1102.22988 C851.318043,1101.03844 850.455353,1099.72341 848.743634,1098.28377 L822.927185,1076.58518 C821.215972,1075.14705 819.764325,1074.51755 818.57275,1074.69769 C817.546123,1074.78026 816.461815,1075.48581 815.32185,1076.81186 Z M857.377114,1112.1602 C854.546175,1115.4548 851.317537,1117.31226 847.69019,1117.72959 C843.502727,1118.15142 839.490838,1116.74832 835.649969,1113.51978 L809.833521,1091.82168 C805.99417,1088.59464 803.945976,1084.90423 803.691976,1080.74846 C803.525003,1077.14212 804.856734,1073.6904 807.687674,1070.3963 C810.519625,1067.10171 813.748262,1065.24575 817.375103,1064.82642 C821.561554,1064.40509 825.575973,1065.80819 829.415324,1069.03573 L855.231267,1090.73383 C859.072136,1093.96237 861.118812,1097.65328 861.373824,1101.80705 C861.54029,1105.41589 860.208054,1108.86611 857.377114,1112.1602 Z M861.565842,1038.5283 L869.82237,1052.116 L879.580636,1046.31594 L884.741598,1054.80863 L874.983838,1060.60819 L889.245803,1084.07718 L880.658872,1089.1812 L847.818456,1035.14013 L870.456359,1021.68453 L875.617321,1030.17722 L861.565842,1038.5283 Z M916.246895,1015.83512 L919.942042,1031.26128 L931.019896,1028.66523 L933.329679,1038.30583 L922.25132,1040.90187 L928.63371,1067.54586 L918.885563,1069.82966 L904.188458,1008.47883 L929.889038,1002.45709 L932.198822,1012.09818 L916.246895,1015.83512 Z M975.555863,1010.69142 L974.233746,1026.48987 L985.488691,1027.41109 L984.662431,1037.28537 L973.407486,1036.36415 L971.949767,1053.77786 L988.287248,1055.11542 L987.460988,1064.9897 L961.139575,1062.8345 L966.398191,1000 L992.72011,1002.1547 L991.89385,1012.02848 L975.555863,1010.69142 Z M1034.75812,1024.26316 L1028.52854,1038.86867 L1038.93445,1043.20909 L1035.04147,1052.33828 L1024.63555,1047.99786 L1017.76945,1064.09804 L1032.87386,1070.39901 L1028.98088,1079.5277 L1004.64441,1069.3772 L1029.42057,1011.28344 L1053.75653,1021.43393 L1049.86355,1030.56313 L1034.75812,1024.26316 Z M1100.10127,1093.01262 L1102.33566,1095.97095 C1103.35267,1097.31751 1104.38992,1098.08912 1105.4459,1098.28277 C1106.72096,1098.46492 1108.20853,1097.92799 1109.91215,1096.67 L1114.65467,1093.16624 C1116.30719,1091.94428 1117.22048,1090.74483 1117.39352,1089.56841 C1117.49219,1088.59614 1116.99734,1087.38769 1115.90697,1085.94455 L1113.67207,1082.98622 L1100.10127,1093.01262 Z M1078.64988,1108.86161 L1081.70244,1112.90179 C1082.79231,1114.34543 1083.82197,1115.15857 1084.79446,1115.33971 C1085.93392,1115.54637 1087.33244,1115.03897 1088.98648,1113.81651 L1093.65613,1110.36629 C1095.40732,1109.07277 1096.34995,1107.81378 1096.48657,1106.58882 C1096.59788,1105.53198 1096.14453,1104.32904 1095.12751,1102.98348 L1092.07496,1098.94279 L1078.64988,1108.86161 Z M1073.67562,1118.83246 L1064.62825,1106.85352 L1115.70204,1069.1188 L1123.93277,1080.01488 C1126.51274,1083.43007 1127.65321,1086.8963 1127.3557,1090.41507 C1127.18114,1092.49321 1126.51021,1094.41272 1125.34141,1096.17611 C1124.25558,1097.95151 1122.69312,1099.59381 1120.6505,1101.10299 L1115.90798,1104.60675 C1112.45367,1107.15926 1109.09905,1108.13754 1105.84764,1107.54257 C1105.94884,1111.58975 1103.88395,1115.17758 1099.65196,1118.30404 L1094.9823,1121.75426 C1092.89009,1123.29898 1090.87832,1124.29777 1088.94752,1124.75162 C1086.90641,1125.3601 1084.85315,1125.45217 1082.79028,1125.02784 C1079.33042,1124.36031 1076.29253,1122.29569 1073.67562,1118.83246 Z M1116.85233,1155.49444 L1095.56893,1162.41639 L1092.41062,1152.91941 L1113.69403,1145.99746 L1149.13213,1121.6718 L1152.43211,1131.59662 L1132.82197,1144.99117 L1156.70053,1144.43173 L1160,1154.35704 L1116.85233,1155.49444 Z M808.849396,1257.50155 L810.1958,1261.03833 C810.809044,1262.6481 811.606969,1263.69693 812.589576,1264.18531 C813.790258,1264.72324 815.406854,1264.61315 817.442904,1263.85455 L823.111867,1261.74339 C825.088212,1261.00731 826.330385,1260.08458 826.838891,1258.97621 C827.215338,1258.04848 827.075182,1256.72093 826.418425,1254.99607 L825.072021,1251.45979 L808.849396,1257.50155 Z M783.207003,1267.05357 L785.046735,1271.88338 C785.703998,1273.60823 786.482697,1274.69709 787.385865,1275.14945 C788.447404,1275.67236 789.967864,1275.56678 791.945221,1274.8297 L797.52665,1272.75106 C799.620381,1271.97095 800.908598,1270.99868 801.395347,1269.83276 C801.807718,1268.82397 801.708041,1267.51544 801.094797,1265.90567 L799.255066,1261.07586 L783.207003,1267.05357 Z M775.452911,1275.45719 L770,1261.13941 L831.052159,1238.398 L836.012755,1251.42276 C837.567115,1255.50447 837.692091,1259.23291 836.388695,1262.60857 C835.619611,1264.60164 834.408808,1266.30148 832.752747,1267.70609 C831.175617,1269.14572 829.167902,1270.32115 826.725552,1271.23086 L821.05659,1273.34303 C816.927314,1274.88124 813.349553,1274.89925 810.323306,1273.40057 C809.259743,1277.40773 806.19909,1280.35455 801.140335,1282.23903 L795.5584,1284.31767 C793.057864,1285.24941 790.793112,1285.66523 788.764651,1285.56816 C786.58288,1285.59318 784.538228,1285.10629 782.632214,1284.10951 C779.422804,1282.48122 777.029534,1279.59695 775.452911,1275.45719 Z M849.742584,1294.77116 L837.191832,1305.21538 L844.632219,1313.96077 L836.788063,1320.48892 L829.347675,1311.74303 L815.513767,1323.25609 L826.314345,1335.9506 L818.470189,1342.47874 L801.068638,1322.02663 L850.986274,1280.4854 L868.387825,1300.93751 L860.543668,1307.46516 L849.742584,1294.77116 Z M874.865035,1381.15856 L869.722794,1378.1692 L872.988873,1342.1148 L856.224347,1370.32302 L847.385947,1365.18497 L880.443934,1309.56316 L885.586175,1312.55201 L882.366645,1348.52735 L899.084621,1320.39819 L907.923021,1325.53574 L874.865035,1381.15856 Z M923.716983,1397.16577 C919.316503,1396.37064 915.99932,1394.49216 913.768469,1391.52683 C911.247693,1388.0731 910.452298,1383.83827 911.379247,1378.82082 L912.835954,1370.9326 L922.921587,1372.75504 L921.463868,1380.64325 C921.050991,1382.88001 921.198231,1384.46877 921.91014,1385.40851 C922.568921,1386.27719 923.786301,1386.87216 925.55975,1387.19191 C927.269951,1387.50115 928.59055,1387.36455 929.519523,1386.78359 C930.592194,1386.10355 931.330414,1384.67393 931.732159,1382.49821 L940.710716,1333.89943 L950.795337,1335.72186 L941.816781,1384.32065 C940.9126,1389.21651 938.652908,1392.90041 935.038717,1395.36985 C931.76859,1397.34141 927.994004,1397.93888 923.716983,1397.16577 Z M993.085172,1376.25429 L985.156011,1354.11485 L984.998147,1377.60186 L993.085172,1376.25429 Z M996.534415,1385.96094 L984.954633,1387.89046 L984.834716,1398.28515 L974.542138,1400 L976.571105,1334.23369 L986.680519,1332.54987 L1010.38401,1394.0288 L1000.09143,1395.74315 L996.534415,1385.96094 Z M1048.83996,1304.7302 L1083.89453,1359.14457 L1075.24789,1364.59186 L1057.77095,1337.46299 L1062.74369,1360.44959 L1057.71378,1363.61909 L1038.75028,1349.44793 L1056.22621,1376.5768 L1047.58008,1382.02509 L1012.52652,1327.61123 L1017.478,1324.49077 L1050.11401,1346.33147 L1043.88847,1307.84966 L1048.83996,1304.7302 Z M1119.64461,1325.25417 L1113.243,1333.17291 L1062.2871,1292.88417 L1068.68871,1284.96543 L1119.64461,1325.25417 Z M1153.04748,1263.27269 L1150.81106,1268.7415 L1114.26841,1270.82865 L1144.94122,1283.09631 L1141.09732,1292.49571 L1080.61742,1268.30566 L1082.85333,1262.83635 L1119.30895,1260.71518 L1088.72367,1248.48154 L1092.56808,1239.08264 L1153.04748,1263.27269 Z M807.927861,1199.38156 C807.927861,1204.16033 804.010589,1208.03438 799.178512,1208.03438 C794.345928,1208.03438 790.428657,1204.16033 790.428657,1199.38156 C790.428657,1194.6028 794.345928,1190.72875 799.178512,1190.72875 C804.010589,1190.72875 807.927861,1194.6028 807.927861,1199.38156 Z M1133.77685,1199.38156 C1133.77685,1204.16033 1129.85958,1208.03438 1125.0275,1208.03438 C1120.19492,1208.03438 1116.27764,1204.16033 1116.27764,1199.38156 C1116.27764,1194.6028 1120.19492,1190.72875 1125.0275,1190.72875 C1129.85958,1190.72875 1133.77685,1194.6028 1133.77685,1199.38156 Z M1013,1189.6875 L926.6,1287 L955.4,1211.3125 L917,1211.3125 L1003.4,1114 L974.6,1189.6875 L1013,1189.6875 Z" id="Combined-Shape"></path>
        </g>
    </g>
</svg>