<?xml version="1.0" encoding="UTF-8"?>
<!-- Generator: Adobe Illustrator 22.0.1, SVG Export Plug-In . SVG Version: 6.00 Build 0)  -->
<svg version="1.1" id="Layer_1" xmlns="http://www.w3.org/2000/svg" xmlns:xlink="http://www.w3.org/1999/xlink" x="0px" y="0px" viewBox="0 0 63.5 82" style="enable-background:new 0 0 63.5 82;" xml:space="preserve">
<style type="text/css">
	.st0{fill:#000000;}
</style>
<g>
	<polygon class="st0" points="20.2,42.4 16.4,43.7 26.5,59.1 34.9,82 28.5,58.5 27.3,40.1 23.4,41.4 11.9,3.3 6.4,0  "/>
	<path class="st0" d="M18,41.6l-3.5-10.7H0l11.9,10.4l1.9-0.6l1.3,2L18,41.6z M48.1,40.4c-2.1,4.9-7.3,7.4-12.3,5.8   c-4.7-1.6-7.1-6.3-6.1-11.8l-7.5-2.4l2.2,7.5l4-1.4l1.2,19.5L57.2,43l-9-2.9C48.1,40.2,48.1,40.3,48.1,40.4 M30.7,59.8l3.7,13.7   h1.3l5.5-19.2L30.7,59.8z M18.4,50.1l-6.8,23.4l18,0l-5-13.8L18.4,50.1z"/>
	<path class="st0" d="M33.9,35.1c-2.9,7.4,8.7,12.4,11.4,3.7L33.9,35.1z M57.4,13.8c8,0,7.9,11.1,1.4,12.2c0.3-4.3-2.9-5.8-6-2.2   c-3.1,3.6-2.9,11.9-5.1,17.3c-1.8,4.4-6.6,6.7-11.3,5.2c-4.6-1.5-6.4-6-5.5-10.7c1.4-6.1,9.2-18.4,16.4-10.2   C47.9,22.7,50.5,13.8,57.4,13.8L57.4,13.8z"/>
</g>
</svg>